<svg width="190" height="136" viewBox="0 0 190 136" fill="none" xmlns="http://www.w3.org/2000/svg">
<g filter="url(#filter0_i_1123_6299)">
<path d="M138.666 76.5967L94.7576 101.947L50.8491 76.5967L94.7901 51.2461L138.666 76.5967Z" fill="url(#paint0_linear_1123_6299)"/>
</g>
<g filter="url(#filter1_i_1123_6299)">
<path d="M50.8491 76.5967V25.8955L94.7901 0.544922V51.2461L50.8491 76.5967Z" fill="url(#paint1_linear_1123_6299)"/>
</g>
<g filter="url(#filter2_i_1123_6299)">
<path d="M138.731 76.5967V25.8955L94.7904 0.544922V51.2461L138.731 76.5967Z" fill="url(#paint2_linear_1123_6299)"/>
</g>
<g filter="url(#filter3_i_1123_6299)">
<path d="M50.914 76.5967L94.8225 101.947L138.731 76.5967L94.7899 51.2461L50.914 76.5967Z" fill="url(#paint3_linear_1123_6299)"/>
</g>
<path d="M76.7606 91.7092L94.7912 102.119L112.822 91.7092C97.3935 83.7161 91.4453 83.3444 76.7606 91.7092Z" fill="url(#paint4_linear_1123_6299)"/>
<g filter="url(#filter4_d_1123_6299)">
<path d="M91.9276 2.21289C88.169 22.1047 81.8285 43.3708 81.8285 43.3708L93.9711 100.375C94.0223 100.615 94.3776 100.622 94.3728 100.376C94.0908 86.0357 92.4217 2.21289 91.9276 2.21289Z" fill="url(#paint5_linear_1123_6299)" shape-rendering="crispEdges"/>
<path d="M81.8285 43.3708C81.8285 43.3708 88.169 22.1047 91.9276 2.21289C91.4136 2.21289 54.7302 23.6634 51.1491 25.7581C51.013 25.8377 51.0411 26.0194 51.1784 26.0967L81.8285 43.3708Z" fill="url(#paint6_linear_1123_6299)" shape-rendering="crispEdges"/>
<path d="M81.8285 43.3708C81.8285 43.3708 88.169 22.1047 91.9276 2.21289M81.8285 43.3708L93.9711 100.375C94.0223 100.615 94.3776 100.622 94.3728 100.376C94.0908 86.0357 92.4217 2.21289 91.9276 2.21289M81.8285 43.3708L51.1784 26.0967C51.0411 26.0194 51.013 25.8377 51.1491 25.7581C54.7302 23.6634 91.4136 2.21289 91.9276 2.21289" stroke="url(#paint7_linear_1123_6299)" stroke-width="0.371765" stroke-linejoin="bevel" shape-rendering="crispEdges"/>
</g>
<path d="M88.916 77.5508L93.9806 100.408C94.0336 100.647 94.387 100.605 94.3813 100.359L93.8572 77.5508H88.916Z" fill="url(#paint8_linear_1123_6299)"/>
<path opacity="0.7" d="M58.4699 30.5182L81.7344 43.1235L85.237 31.6335L88.397 19.3652C80.2181 19.3652 66.0911 26.8005 58.4699 30.5182Z" fill="url(#paint9_linear_1123_6299)"/>
<path opacity="0.7" d="M84.413 54.8688L81.4389 42.9732L84.9707 31.6335L88.1307 19.3652C89.9895 42.9732 88.6884 43.9017 84.413 54.8688Z" fill="url(#paint10_linear_1123_6299)"/>
<path d="M81.5593 42.4142L70.7383 37.0236L81.5593 43.4551L83.3783 50.9648L82.0771 43.4551L84.6795 33.6777L81.5593 42.4142Z" fill="white" fill-opacity="0.7"/>
<g filter="url(#filter5_d_1123_6299)">
<path d="M97.6916 2.21289C101.45 22.1047 107.791 43.3708 107.791 43.3708L95.6481 100.375C95.5969 100.615 95.2415 100.622 95.2464 100.376C95.5283 86.0357 97.1975 2.21289 97.6916 2.21289Z" fill="url(#paint11_linear_1123_6299)" shape-rendering="crispEdges"/>
<path d="M107.791 43.3708C107.791 43.3708 101.45 22.1047 97.6916 2.21289C98.2055 2.21289 134.889 23.6634 138.47 25.7581C138.606 25.8377 138.578 26.0194 138.441 26.0967L107.791 43.3708Z" fill="url(#paint12_linear_1123_6299)" shape-rendering="crispEdges"/>
<path d="M107.791 43.3708C107.791 43.3708 101.45 22.1047 97.6916 2.21289M107.791 43.3708L95.6481 100.375C95.5969 100.615 95.2415 100.622 95.2464 100.376C95.5283 86.0357 97.1975 2.21289 97.6916 2.21289M107.791 43.3708L138.441 26.0967C138.578 26.0194 138.606 25.8377 138.47 25.7581C134.889 23.6634 98.2055 2.21289 97.6916 2.21289" stroke="url(#paint13_linear_1123_6299)" stroke-width="0.371765" stroke-linejoin="bevel" shape-rendering="crispEdges"/>
</g>
<path d="M100.703 77.5508L95.6386 100.408C95.5855 100.647 95.2322 100.605 95.2378 100.359L95.7619 77.5508H100.703Z" fill="url(#paint14_linear_1123_6299)"/>
<path opacity="0.7" d="M131.149 30.5182L107.897 43.1262L104.382 31.6335L101.222 19.3652C109.401 19.3652 123.528 26.8005 131.149 30.5182Z" fill="url(#paint15_linear_1123_6299)"/>
<path opacity="0.7" d="M105.206 54.8688L108.18 42.9732L104.648 31.6335L101.488 19.3652C99.6296 42.9732 100.931 43.9017 105.206 54.8688Z" fill="url(#paint16_linear_1123_6299)"/>
<path d="M108.113 42.6734L118.881 37.0236L108.06 43.4551L106.241 50.9648L107.542 43.4551L104.94 33.6777L108.113 42.6734Z" fill="white" fill-opacity="0.7"/>
<path d="M16.3073 116.217H25.6281L30.6431 127.185L35.6835 116.217H44.9536V133.111H39.888L40.0146 120.473H39.1534L32.796 133.111H28.5156L22.1582 120.473H21.2464L21.373 133.111H16.3073V116.217ZM64.0925 126.602H69.2594C69.2848 127.564 69.3101 127.944 69.3101 128.198C69.3101 130.933 68.6009 132.174 66.7266 132.782C65.3589 133.213 63.5099 133.365 59.7613 133.365C53.1507 133.365 51.0231 133.162 49.6554 132.377C48.5409 131.744 48.0343 130.806 47.8317 129.084C47.7557 128.324 47.7051 126.931 47.7051 124.778C47.7051 121.004 47.8064 119.611 48.1863 118.674C49.0981 116.395 50.9471 115.964 59.7867 115.964C64.2951 115.964 65.8654 116.141 67.0305 116.749C68.4742 117.484 68.9808 118.725 68.9808 121.435V122.271H63.8392C63.7885 121.156 63.7379 120.928 63.4339 120.675C63.054 120.346 61.5596 120.194 58.3176 120.194C55.1009 120.194 54.1638 120.295 53.6572 120.7C53.0493 121.207 52.8467 122.195 52.8467 124.753C52.8467 129.084 52.9227 129.135 58.3429 129.135C63.9911 129.135 64.0671 129.109 64.0925 126.602ZM70.657 116.217H91.0969V120.523H83.5744V133.111H78.1795V120.523H70.657V116.217ZM93.0381 116.217H110.895V120.194H98.1797V123.385H110.261V127.261H98.1797V133.111H93.0381V116.217ZM120.569 116.217H139.363V119.839H128.37H127.205C126.218 119.839 125.458 119.789 125.078 119.713V121.536C125.078 122.17 125.078 122.397 125.027 122.803C125.736 122.17 126.015 122.018 126.673 121.866C127.484 121.663 129.384 121.536 131.612 121.536C138.755 121.536 140.148 122.448 140.148 127.083C140.148 130.427 139.49 131.921 137.742 132.63C136.399 133.162 135.057 133.314 131.207 133.314C126.066 133.314 124.318 133.213 122.621 132.833C120.671 132.377 119.911 131.212 119.911 128.552C119.911 128.451 119.911 128.172 119.936 127.894H124.824C124.85 128.603 124.926 128.932 125.128 129.109C125.508 129.464 126.724 129.591 129.839 129.591C133.537 129.591 134.019 129.565 134.525 129.337C135.006 129.109 135.158 128.578 135.158 127.235C135.158 125.969 134.93 125.564 134.095 125.412C133.335 125.26 130.954 125.158 128.75 125.158C125.762 125.158 125.078 125.361 125.078 126.247V126.45H120.569V116.217ZM143.902 128.628H149.297V133.111H143.902V128.628ZM163.004 116.015C166.068 116.015 168.525 116.116 169.792 116.319C171.793 116.597 173.059 117.762 173.388 119.586C173.566 120.574 173.591 120.954 173.591 124.652C173.591 128.375 173.566 128.755 173.388 129.743C173.059 131.566 171.793 132.731 169.792 133.01C168.551 133.213 166.068 133.314 163.004 133.314C159.914 133.314 157.431 133.213 156.19 133.01C154.189 132.731 152.923 131.566 152.594 129.743C152.391 128.73 152.391 128.451 152.391 124.424C152.391 121.004 152.416 120.549 152.594 119.586C152.923 117.762 154.189 116.597 156.19 116.319C157.457 116.116 159.914 116.015 163.004 116.015ZM162.674 120.397C157.761 120.397 157.533 120.574 157.533 124.576C157.533 128.78 157.71 128.932 162.649 128.932C168.373 128.932 168.449 128.856 168.449 124.652C168.449 120.473 168.348 120.397 162.674 120.397Z" fill="white"/>
<g filter="url(#filter6_f_1123_6299)">
<path d="M16.3073 116.057H25.6281L30.6431 127.024L35.6835 116.057H44.9536V132.951H39.888L40.0146 120.312H39.1534L32.796 132.951H28.5156L22.1582 120.312H21.2464L21.373 132.951H16.3073V116.057ZM64.0925 126.442H69.2594C69.2848 127.404 69.3101 127.784 69.3101 128.037C69.3101 130.773 68.6009 132.014 66.7266 132.622C65.3589 133.052 63.5099 133.204 59.7613 133.204C53.1507 133.204 51.0231 133.002 49.6554 132.217C48.5409 131.583 48.0343 130.646 47.8317 128.924C47.7557 128.164 47.7051 126.771 47.7051 124.618C47.7051 120.844 47.8064 119.451 48.1863 118.514C49.0981 116.235 50.9471 115.804 59.7867 115.804C64.2951 115.804 65.8654 115.981 67.0305 116.589C68.4742 117.324 68.9808 118.565 68.9808 121.275V122.111H63.8392C63.7885 120.996 63.7379 120.768 63.4339 120.515C63.054 120.186 61.5596 120.034 58.3176 120.034C55.1009 120.034 54.1638 120.135 53.6572 120.54C53.0493 121.047 52.8467 122.035 52.8467 124.593C52.8467 128.924 52.9227 128.975 58.3429 128.975C63.9911 128.975 64.0671 128.949 64.0925 126.442ZM70.657 116.057H91.0969V120.363H83.5744V132.951H78.1795V120.363H70.657V116.057ZM93.0381 116.057H110.895V120.034H98.1797V123.225H110.261V127.1H98.1797V132.951H93.0381V116.057ZM120.569 116.057H139.363V119.679H128.37H127.205C126.218 119.679 125.458 119.629 125.078 119.553V121.376C125.078 122.009 125.078 122.237 125.027 122.643C125.736 122.009 126.015 121.857 126.673 121.705C127.484 121.503 129.384 121.376 131.612 121.376C138.755 121.376 140.148 122.288 140.148 126.923C140.148 130.266 139.49 131.761 137.742 132.47C136.399 133.002 135.057 133.154 131.207 133.154C126.066 133.154 124.318 133.052 122.621 132.673C120.671 132.217 119.911 131.052 119.911 128.392C119.911 128.291 119.911 128.012 119.936 127.734H124.824C124.85 128.443 124.926 128.772 125.128 128.949C125.508 129.304 126.724 129.431 129.839 129.431C133.537 129.431 134.019 129.405 134.525 129.177C135.006 128.949 135.158 128.417 135.158 127.075C135.158 125.809 134.93 125.403 134.095 125.251C133.335 125.099 130.954 124.998 128.75 124.998C125.762 124.998 125.078 125.201 125.078 126.087V126.29H120.569V116.057ZM143.902 128.468H149.297V132.951H143.902V128.468ZM163.004 115.855C166.068 115.855 168.525 115.956 169.792 116.159C171.793 116.437 173.059 117.602 173.388 119.426C173.566 120.414 173.591 120.794 173.591 124.492C173.591 128.215 173.566 128.595 173.388 129.583C173.059 131.406 171.793 132.571 169.792 132.85C168.551 133.052 166.068 133.154 163.004 133.154C159.914 133.154 157.431 133.052 156.19 132.85C154.189 132.571 152.923 131.406 152.594 129.583C152.391 128.569 152.391 128.291 152.391 124.264C152.391 120.844 152.416 120.388 152.594 119.426C152.923 117.602 154.189 116.437 156.19 116.159C157.457 115.956 159.914 115.855 163.004 115.855ZM162.674 120.236C157.761 120.236 157.533 120.414 157.533 124.416C157.533 128.62 157.71 128.772 162.649 128.772C168.373 128.772 168.449 128.696 168.449 124.492C168.449 120.312 168.348 120.236 162.674 120.236Z" fill="white"/>
</g>
<defs>
<filter id="filter0_i_1123_6299" x="50.8491" y="51.2461" width="87.8169" height="52.0532" filterUnits="userSpaceOnUse" color-interpolation-filters="sRGB">
<feFlood flood-opacity="0" result="BackgroundImageFix"/>
<feBlend mode="normal" in="SourceGraphic" in2="BackgroundImageFix" result="shape"/>
<feColorMatrix in="SourceAlpha" type="matrix" values="0 0 0 0 0 0 0 0 0 0 0 0 0 0 0 0 0 0 127 0" result="hardAlpha"/>
<feOffset dy="1.35203"/>
<feGaussianBlur stdDeviation="5.74614"/>
<feComposite in2="hardAlpha" operator="arithmetic" k2="-1" k3="1"/>
<feColorMatrix type="matrix" values="0 0 0 0 0 0 0 0 0 0 0 0 0 0 0 0 0 0 0.55 0"/>
<feBlend mode="normal" in2="shape" result="effect1_innerShadow_1123_6299"/>
</filter>
<filter id="filter1_i_1123_6299" x="49.1591" y="0.544922" width="45.631" height="78.0788" filterUnits="userSpaceOnUse" color-interpolation-filters="sRGB">
<feFlood flood-opacity="0" result="BackgroundImageFix"/>
<feBlend mode="normal" in="SourceGraphic" in2="BackgroundImageFix" result="shape"/>
<feColorMatrix in="SourceAlpha" type="matrix" values="0 0 0 0 0 0 0 0 0 0 0 0 0 0 0 0 0 0 127 0" result="hardAlpha"/>
<feOffset dx="-1.69004" dy="2.02805"/>
<feGaussianBlur stdDeviation="5.91514"/>
<feComposite in2="hardAlpha" operator="arithmetic" k2="-1" k3="1"/>
<feColorMatrix type="matrix" values="0 0 0 0 0 0 0 0 0 0 0 0 0 0 0 0 0 0 0.7 0"/>
<feBlend mode="normal" in2="shape" result="effect1_innerShadow_1123_6299"/>
</filter>
<filter id="filter2_i_1123_6299" x="93.1005" y="0.544922" width="45.631" height="78.0788" filterUnits="userSpaceOnUse" color-interpolation-filters="sRGB">
<feFlood flood-opacity="0" result="BackgroundImageFix"/>
<feBlend mode="normal" in="SourceGraphic" in2="BackgroundImageFix" result="shape"/>
<feColorMatrix in="SourceAlpha" type="matrix" values="0 0 0 0 0 0 0 0 0 0 0 0 0 0 0 0 0 0 127 0" result="hardAlpha"/>
<feOffset dx="-1.69004" dy="2.02805"/>
<feGaussianBlur stdDeviation="5.91514"/>
<feComposite in2="hardAlpha" operator="arithmetic" k2="-1" k3="1"/>
<feColorMatrix type="matrix" values="0 0 0 0 0 0 0 0 0 0 0 0 0 0 0 0 0 0 0.7 0"/>
<feBlend mode="normal" in2="shape" result="effect1_innerShadow_1123_6299"/>
</filter>
<filter id="filter3_i_1123_6299" x="50.9141" y="51.2461" width="87.8169" height="52.0532" filterUnits="userSpaceOnUse" color-interpolation-filters="sRGB">
<feFlood flood-opacity="0" result="BackgroundImageFix"/>
<feBlend mode="normal" in="SourceGraphic" in2="BackgroundImageFix" result="shape"/>
<feColorMatrix in="SourceAlpha" type="matrix" values="0 0 0 0 0 0 0 0 0 0 0 0 0 0 0 0 0 0 127 0" result="hardAlpha"/>
<feOffset dy="1.35203"/>
<feGaussianBlur stdDeviation="5.74614"/>
<feComposite in2="hardAlpha" operator="arithmetic" k2="-1" k3="1"/>
<feColorMatrix type="matrix" values="0 0 0 0 0 0 0 0 0 0 0 0 0 0 0 0 0 0 0.55 0"/>
<feBlend mode="normal" in2="shape" result="effect1_innerShadow_1123_6299"/>
</filter>
<filter id="filter4_d_1123_6299" x="40.7338" y="-0.000703812" width="63.965" height="118.997" filterUnits="userSpaceOnUse" color-interpolation-filters="sRGB">
<feFlood flood-opacity="0" result="BackgroundImageFix"/>
<feColorMatrix in="SourceAlpha" type="matrix" values="0 0 0 0 0 0 0 0 0 0 0 0 0 0 0 0 0 0 127 0" result="hardAlpha"/>
<feOffset dy="8.11219"/>
<feGaussianBlur stdDeviation="5.07012"/>
<feComposite in2="hardAlpha" operator="out"/>
<feColorMatrix type="matrix" values="0 0 0 0 0 0 0 0 0 0 0 0 0 0 0 0 0 0 0.4 0"/>
<feBlend mode="normal" in2="BackgroundImageFix" result="effect1_dropShadow_1123_6299"/>
<feBlend mode="normal" in="SourceGraphic" in2="effect1_dropShadow_1123_6299" result="shape"/>
</filter>
<filter id="filter5_d_1123_6299" x="84.9203" y="-0.000703812" width="63.965" height="118.997" filterUnits="userSpaceOnUse" color-interpolation-filters="sRGB">
<feFlood flood-opacity="0" result="BackgroundImageFix"/>
<feColorMatrix in="SourceAlpha" type="matrix" values="0 0 0 0 0 0 0 0 0 0 0 0 0 0 0 0 0 0 127 0" result="hardAlpha"/>
<feOffset dy="8.11219"/>
<feGaussianBlur stdDeviation="5.07012"/>
<feComposite in2="hardAlpha" operator="out"/>
<feColorMatrix type="matrix" values="0 0 0 0 0 0 0 0 0 0 0 0 0 0 0 0 0 0 0.4 0"/>
<feBlend mode="normal" in2="BackgroundImageFix" result="effect1_dropShadow_1123_6299"/>
<feBlend mode="normal" in="SourceGraphic" in2="effect1_dropShadow_1123_6299" result="shape"/>
</filter>
<filter id="filter6_f_1123_6299" x="13.5858" y="113.083" width="162.726" height="22.843" filterUnits="userSpaceOnUse" color-interpolation-filters="sRGB">
<feFlood flood-opacity="0" result="BackgroundImageFix"/>
<feBlend mode="normal" in="SourceGraphic" in2="BackgroundImageFix" result="shape"/>
<feGaussianBlur stdDeviation="1.36066" result="effect1_foregroundBlur_1123_6299"/>
</filter>
<linearGradient id="paint0_linear_1123_6299" x1="94.7901" y1="51.2461" x2="94.7901" y2="101.947" gradientUnits="userSpaceOnUse">
<stop offset="0.127142" stop-color="#505050"/>
<stop offset="1" stop-color="#D9D9D9"/>
</linearGradient>
<linearGradient id="paint1_linear_1123_6299" x1="94.7901" y1="0.544923" x2="50.8491" y2="76.5967" gradientUnits="userSpaceOnUse">
<stop offset="0.33" stop-color="#0A0131"/>
<stop offset="1" stop-color="#411384"/>
</linearGradient>
<linearGradient id="paint2_linear_1123_6299" x1="94.7904" y1="0.544923" x2="138.731" y2="76.5967" gradientUnits="userSpaceOnUse">
<stop offset="0.33" stop-color="#0A0131"/>
<stop offset="1" stop-color="#411384"/>
</linearGradient>
<linearGradient id="paint3_linear_1123_6299" x1="94.7899" y1="51.2461" x2="94.79" y2="101.932" gradientUnits="userSpaceOnUse">
<stop offset="0.233063" stop-color="#0F0440"/>
<stop offset="0.879808" stop-color="#AB48F5"/>
</linearGradient>
<linearGradient id="paint4_linear_1123_6299" x1="94.7912" y1="85.575" x2="94.7911" y2="103.034" gradientUnits="userSpaceOnUse">
<stop offset="0.301781" stop-color="#D000FF" stop-opacity="0.03"/>
<stop offset="0.875698" stop-color="white" stop-opacity="0.75"/>
</linearGradient>
<linearGradient id="paint5_linear_1123_6299" x1="72.641" y1="2.21289" x2="72.641" y2="102.451" gradientUnits="userSpaceOnUse">
<stop offset="0.245192" stop-color="#2B13A0"/>
<stop offset="1" stop-color="#DE05F8"/>
</linearGradient>
<linearGradient id="paint6_linear_1123_6299" x1="72.6119" y1="2.9081" x2="72.6119" y2="102.451" gradientUnits="userSpaceOnUse">
<stop offset="0.0721154" stop-color="#571ED8"/>
<stop offset="0.596154" stop-color="#FD00FF"/>
<stop offset="0.658654" stop-color="#D000FF"/>
</linearGradient>
<linearGradient id="paint7_linear_1123_6299" x1="72.6119" y1="2.9081" x2="72.6119" y2="102.451" gradientUnits="userSpaceOnUse">
<stop offset="0.158654" stop-color="white" stop-opacity="0"/>
<stop offset="0.394231" stop-color="white"/>
<stop offset="0.778846" stop-color="white" stop-opacity="0"/>
</linearGradient>
<linearGradient id="paint8_linear_1123_6299" x1="98.0466" y1="80.2971" x2="89.5754" y2="102.065" gradientUnits="userSpaceOnUse">
<stop offset="0.301781" stop-color="#D000FF" stop-opacity="0.03"/>
<stop offset="0.875698" stop-color="white" stop-opacity="0.9"/>
</linearGradient>
<linearGradient id="paint9_linear_1123_6299" x1="72.9687" y1="21.2241" x2="81.7052" y2="42.9732" gradientUnits="userSpaceOnUse">
<stop offset="0.301781" stop-color="#D000FF" stop-opacity="0.03"/>
<stop offset="0.875698" stop-color="white" stop-opacity="0.6"/>
</linearGradient>
<linearGradient id="paint10_linear_1123_6299" x1="85.9814" y1="43.7158" x2="81.439" y2="42.9732" gradientUnits="userSpaceOnUse">
<stop offset="0.301781" stop-color="#D000FF" stop-opacity="0.03"/>
<stop offset="0.875698" stop-color="white" stop-opacity="0.9"/>
</linearGradient>
<linearGradient id="paint11_linear_1123_6299" x1="116.978" y1="2.21289" x2="116.978" y2="102.451" gradientUnits="userSpaceOnUse">
<stop offset="0.245192" stop-color="#2B13A0"/>
<stop offset="1" stop-color="#DE05F8"/>
</linearGradient>
<linearGradient id="paint12_linear_1123_6299" x1="117.007" y1="2.9081" x2="117.007" y2="102.451" gradientUnits="userSpaceOnUse">
<stop offset="0.0721154" stop-color="#571ED8"/>
<stop offset="0.596154" stop-color="#FD00FF"/>
<stop offset="0.658654" stop-color="#D000FF"/>
</linearGradient>
<linearGradient id="paint13_linear_1123_6299" x1="117.007" y1="2.9081" x2="117.007" y2="102.451" gradientUnits="userSpaceOnUse">
<stop offset="0.158654" stop-color="white" stop-opacity="0"/>
<stop offset="0.394231" stop-color="white"/>
<stop offset="0.778846" stop-color="white" stop-opacity="0"/>
</linearGradient>
<linearGradient id="paint14_linear_1123_6299" x1="91.5725" y1="80.2971" x2="100.044" y2="102.065" gradientUnits="userSpaceOnUse">
<stop offset="0.301781" stop-color="#D000FF" stop-opacity="0.03"/>
<stop offset="0.875698" stop-color="white" stop-opacity="0.9"/>
</linearGradient>
<linearGradient id="paint15_linear_1123_6299" x1="116.65" y1="21.2241" x2="107.913" y2="42.9732" gradientUnits="userSpaceOnUse">
<stop offset="0.301781" stop-color="#D000FF" stop-opacity="0.03"/>
<stop offset="0.875698" stop-color="white" stop-opacity="0.6"/>
</linearGradient>
<linearGradient id="paint16_linear_1123_6299" x1="103.638" y1="43.7158" x2="108.18" y2="42.9732" gradientUnits="userSpaceOnUse">
<stop offset="0.301781" stop-color="#D000FF" stop-opacity="0.03"/>
<stop offset="0.875698" stop-color="white" stop-opacity="0.9"/>
</linearGradient>
</defs>
</svg>
